<svg width="106" height="46" viewBox="0 0 106 46" fill="none" xmlns="http://www.w3.org/2000/svg">
<path d="M21.7863 11.8575C19.7563 10.3229 17.2308 9.41667 14.5 9.41667C7.83001 9.41667 2.41668 14.83 2.41668 21.5C2.41668 28.17 7.83001 33.5833 14.5 33.5833C21.17 33.5833 26.5833 28.17 26.5833 21.5" stroke="#2F3C37" stroke-width="1.5" stroke-linecap="round" stroke-linejoin="round"/>
<path d="M14.5 13.0417C9.82373 13.0417 6.04165 16.8238 6.04165 21.5C6.04165 26.1763 9.82373 29.9583 14.5 29.9583C19.1762 29.9583 22.9583 26.1763 22.9583 21.5" stroke="#2F3C37" stroke-width="1.5" stroke-linecap="round" stroke-linejoin="round"/>
<path d="M9.66665 21.5C9.66665 24.1704 11.8296 26.3333 14.5 26.3333C17.1704 26.3333 19.3333 24.1704 19.3333 21.5" stroke="#47BEC6" stroke-width="1.5" stroke-linecap="round" stroke-linejoin="round"/>
<path d="M40.8809 20.2617C41.3626 23.4714 41.7207 25.6003 41.9551 26.6484C42.1895 27.6901 42.4206 28.6829 42.6484 29.627C42.8763 30.571 43.0586 31.3555 43.1953 31.9805C42.7331 32.1302 42.1764 32.2051 41.5254 32.2051C40.8809 32.2051 40.4251 32.1302 40.1582 31.9805C39.6504 31.0169 39.0449 27.9896 38.3418 22.8984C38.2246 22.0521 38.1562 21.5671 38.1367 21.4434C36.9323 24.2949 36.1185 26.8438 35.6953 29.0898C35.5391 29.9102 35.4609 30.4863 35.4609 30.8184C35.4609 31.1504 35.4609 31.3457 35.4609 31.4043C35.0573 31.6908 34.5267 31.834 33.8691 31.834C33.1465 31.834 32.7038 31.6908 32.541 31.4043C32.4434 31.1243 32.209 30.4049 31.8379 29.2461C30.8418 26.1211 29.9564 23.4844 29.1816 21.3359L29.1426 21.9023C29.0449 23.9922 28.918 25.4668 28.7617 26.3262C28.6055 27.1855 28.4622 27.8919 28.332 28.4453C28.2018 28.9922 28.0456 29.4805 27.8633 29.9102C27.6875 30.3333 27.4857 30.724 27.2578 31.082C26.737 31.9154 26.0892 32.332 25.3145 32.332C24.6699 32.332 24.1556 32.0977 23.7715 31.6289C23.5892 31.4076 23.498 31.1699 23.498 30.916C24.0514 30.5449 24.5592 30.0371 25.0215 29.3926C25.4837 28.748 25.8613 28.071 26.1543 27.3613C26.4473 26.6517 26.7012 25.8932 26.916 25.0859C27.3652 23.4062 27.5898 21.9512 27.5898 20.7207C27.5898 20.3171 27.5605 20.0566 27.502 19.9395C27.4434 19.8158 27.401 19.7246 27.375 19.666C27.349 19.6009 27.2969 19.5423 27.2188 19.4902C27.1406 19.4382 27.0885 19.4056 27.0625 19.3926C27.043 19.3796 26.9844 19.3568 26.8867 19.3242C26.7891 19.2852 26.7337 19.2624 26.7207 19.2559C26.6165 19.1257 26.5645 18.9108 26.5645 18.6113C26.5645 18.3053 26.5775 18.1003 26.6035 17.9961C26.929 17.931 27.3652 17.8984 27.9121 17.8984C28.4655 17.8984 29.1882 17.931 30.0801 17.9961C30.3926 18.0612 31.3919 20.2585 33.0781 24.5879C33.7161 26.2285 34.1165 27.2051 34.2793 27.5176C34.6309 26.3197 35.7572 23.1523 37.6582 18.0156C38.3092 17.9701 38.7357 17.9473 38.9375 17.9473C39.1458 17.9473 39.3737 17.9896 39.6211 18.0742C39.875 18.1523 40.1257 18.39 40.373 18.7871C40.6204 19.1842 40.7897 19.6758 40.8809 20.2617ZM58.9805 28.8945C59.1302 28.8685 59.3451 28.8555 59.625 28.8555C59.9115 28.8555 60.2891 28.9694 60.7578 29.1973C60.7513 29.2493 60.748 29.347 60.748 29.4902C60.748 29.6335 60.7806 29.8092 60.8457 30.0176C60.9173 30.2259 61.0247 30.418 61.168 30.5938C61.4805 30.9844 61.9948 31.1797 62.7109 31.1797C63.4271 31.1797 63.8958 30.9388 64.1172 30.457C64.306 30.0143 64.2734 29.5553 64.0195 29.0801C63.8307 28.7285 63.3262 28.3932 62.5059 28.0742C62.3691 28.0221 62.1803 27.9505 61.9395 27.8594C59.778 27.0846 58.6842 25.9648 58.6582 24.5C58.6582 23.8359 58.8438 23.276 59.2148 22.8203C59.918 21.9674 61.1061 21.541 62.7793 21.541C63.8796 21.541 64.8073 21.7689 65.5625 22.2246C66.3242 22.6803 66.7051 23.2402 66.7051 23.9043C66.7051 24.6465 66.3438 25.0176 65.6211 25.0176C65.1068 25.0176 64.7454 24.9622 64.5371 24.8516C64.3288 24.7344 64.2246 24.6693 64.2246 24.6562C64.2246 24.6172 64.2246 24.5814 64.2246 24.5488C64.2246 23.3314 63.6322 22.7227 62.4473 22.7227C62.0371 22.7227 61.7116 22.8301 61.4707 23.0449C61.2363 23.2533 61.1191 23.5625 61.1191 23.9727C61.1191 24.3763 61.2624 24.7116 61.5488 24.9785C61.8418 25.2454 62.4017 25.5449 63.2285 25.877C64.0618 26.209 64.5957 26.4336 64.8301 26.5508C66.2949 27.2604 67.0273 28.1784 67.0273 29.3047C67.0273 30.2812 66.6139 31.0332 65.7871 31.5605C64.9668 32.0814 63.873 32.3418 62.5059 32.3418C61.6009 32.3418 60.9173 32.2637 60.4551 32.1074C59.9928 31.9512 59.6413 31.8079 59.4004 31.6777C59.166 31.5475 58.9707 31.4108 58.8145 31.2676C58.6647 31.1243 58.5378 30.9746 58.4336 30.8184C58.1536 30.4082 58.0723 29.9915 58.1895 29.5684C58.2871 29.2103 58.5508 28.9857 58.9805 28.8945ZM75.0078 30.0371C75.2422 30.252 75.3757 30.4733 75.4082 30.7012C74.5488 31.7949 73.556 32.3418 72.4297 32.3418C71.694 32.3418 71.1732 32.0488 70.8672 31.4629C70.6068 30.9486 70.4473 30.0664 70.3887 28.8164C70.3366 26.8633 70.3105 25.0436 70.3105 23.3574C69.6465 23.3314 69.2396 23.2988 69.0898 23.2598C69.0573 23.2077 69.041 23.0156 69.041 22.6836C69.041 22.3516 69.0573 22.1693 69.0898 22.1367L70.3301 22.0195C70.3301 21.8828 70.3496 21.2285 70.3887 20.0566C70.7142 19.7246 71.1895 19.4707 71.8145 19.2949C72.446 19.1126 73.0059 19.0215 73.4941 19.0215C73.403 19.8483 73.3281 20.8477 73.2695 22.0195C73.4844 22.026 74.1322 22.0651 75.2129 22.1367C75.2454 22.2474 75.2617 22.459 75.2617 22.7715C75.2617 23.084 75.2454 23.2728 75.2129 23.3379C74.6139 23.416 73.9466 23.4648 73.2109 23.4844C73.1849 24.2591 73.1719 25.2389 73.1719 26.4238C73.1719 27.6022 73.1979 28.7155 73.25 29.7637C73.2695 30.1673 73.4714 30.3691 73.8555 30.3691C74.2461 30.3691 74.6302 30.2585 75.0078 30.0371ZM84.2676 25.4473C84.2676 24.334 84.0137 23.7773 83.5059 23.7773C83.1348 23.7773 82.7799 23.8848 82.4414 24.0996C82.1029 24.3079 81.7383 24.6009 81.3477 24.9785C81.3477 25.6296 81.3281 27.9766 81.2891 32.0195C80.5664 32.1432 79.974 32.2051 79.5117 32.2051C79.056 32.2051 78.6621 32.1432 78.3301 32.0195C78.4082 30.9388 78.4473 29.0866 78.4473 26.4629V24.1777C78.4473 23.6829 78.2747 23.39 77.9297 23.2988C77.6953 23.2272 77.3796 23.1751 76.9824 23.1426C76.9368 22.9473 76.9141 22.8008 76.9141 22.7031C76.9141 22.599 76.9173 22.5176 76.9238 22.459C77.8613 21.9316 79.0202 21.668 80.4004 21.668C80.6283 21.668 80.7975 21.6712 80.9082 21.6777C81.097 22.0033 81.2077 22.3418 81.2402 22.6934C81.2793 23.0449 81.3086 23.3802 81.3281 23.6992C82.2005 22.638 82.9362 21.9935 83.5352 21.7656C83.8216 21.6549 84.1243 21.5996 84.4434 21.5996C85.0944 21.5996 85.6152 21.7819 86.0059 22.1465C86.403 22.5046 86.6016 23.0319 86.6016 23.7285C86.6016 24.2624 86.4062 24.7083 86.0156 25.0664C85.6315 25.418 85.166 25.5938 84.6191 25.5938C84.502 25.5938 84.3848 25.584 84.2676 25.5645V25.4473ZM91.4961 27.7812C91.6914 28.7448 92.1081 29.5228 92.7461 30.1152C93.3841 30.7077 94.1296 31.0039 94.9824 31.0039C95.8353 31.0039 96.6947 30.6361 97.5605 29.9004C97.8861 30.1152 98.0846 30.3691 98.1562 30.6621C97.5573 31.3587 96.6719 31.8568 95.5 32.1562C95.0247 32.2799 94.4746 32.3418 93.8496 32.3418C93.2311 32.3418 92.5898 32.2279 91.9258 32C91.2617 31.7786 90.666 31.4531 90.1387 31.0234C89.6178 30.5938 89.2044 30.0306 88.8984 29.334C88.5924 28.6309 88.4395 27.8529 88.4395 27C88.4395 26.1471 88.5957 25.3757 88.9082 24.6855C89.2207 23.9889 89.6341 23.4193 90.1484 22.9766C91.2227 22.0456 92.4531 21.5801 93.8398 21.5801C95.0573 21.5801 96.112 21.9089 97.0039 22.5664C97.4336 22.8919 97.7754 23.3151 98.0293 23.8359C98.2897 24.3503 98.4199 24.9329 98.4199 25.584C98.4199 26.6973 98.0521 27.2832 97.3164 27.3418L91.4961 27.7812ZM95.793 25.291C95.793 24.5163 95.5781 23.9108 95.1484 23.4746C94.7188 23.0384 94.1556 22.8203 93.459 22.8203C92.7624 22.8203 92.235 23.1491 91.877 23.8066C91.5189 24.4577 91.3398 25.3626 91.3398 26.5215C92.9609 26.3457 94.4258 26.1602 95.7344 25.9648C95.7734 25.7305 95.793 25.5059 95.793 25.291ZM101.332 19.5391C101.221 18.9076 100.808 18.5495 100.092 18.4648C100.046 18.1458 100.023 17.9668 100.023 17.9277C100.023 17.8822 100.027 17.8333 100.033 17.7812C101.264 17.2995 102.51 17.0586 103.773 17.0586C103.832 17.0586 103.894 17.0586 103.959 17.0586C104.096 17.2344 104.187 17.6445 104.232 18.2891C104.278 18.9271 104.301 20.418 104.301 22.7617C104.301 25.099 104.265 28.1784 104.193 32C103.764 32.1237 103.249 32.1855 102.65 32.1855C102.051 32.1855 101.586 32.1172 101.254 31.9805C101.371 31.1081 101.43 29.4447 101.43 26.9902C101.43 24.5358 101.397 22.0521 101.332 19.5391Z" fill="#2F3C37"/>
<path d="M46.6152 34.7637C46.6868 35.0306 46.8105 35.2682 46.9863 35.4766C47.1686 35.6914 47.39 35.7988 47.6504 35.7988C48.0736 35.7988 48.4674 35.5189 48.832 34.959C49.1966 34.4056 49.5091 33.6243 49.7695 32.6152C49.6393 32.2441 49.2747 31.4076 48.6758 30.1055C48.0833 28.8034 47.3835 27.4167 46.5762 25.9453C45.6712 24.3047 45.0072 23.4128 44.584 23.2695C44.4863 23.237 44.3789 23.2174 44.2617 23.2109C44.151 23.2044 44.0534 23.1979 43.9688 23.1914C43.8776 23.1849 43.819 23.1816 43.793 23.1816C43.7474 22.8626 43.7246 22.6836 43.7246 22.6445C43.7246 22.599 43.7279 22.5501 43.7344 22.498C44.7826 21.9121 45.7591 21.6191 46.6641 21.6191C47.0482 21.6191 47.4193 21.694 47.7773 21.8438C48.1354 21.9935 48.6009 22.7552 49.1738 24.1289C49.7533 25.4961 50.4076 27.5143 51.1367 30.1836C51.9896 27.306 52.6536 24.972 53.1289 23.1816C53.2656 22.6608 53.5065 22.2669 53.8516 22C54.2031 21.7331 54.5449 21.5996 54.877 21.5996C55.8405 21.5996 56.4525 21.974 56.7129 22.7227C56.6348 22.7227 56.4785 22.8464 56.2441 23.0938C56.0163 23.3346 55.7656 23.6667 55.4922 24.0898C55.2188 24.5065 54.916 25.0729 54.584 25.7891C54.2585 26.5052 53.9557 27.2409 53.6758 27.9961C53.4023 28.7513 53.1029 29.5586 52.7773 30.418C52.4518 31.2708 52.1361 32.0846 51.8301 32.8594C51.5306 33.6406 51.1953 34.3926 50.8242 35.1152C50.4531 35.8379 50.082 36.4596 49.7109 36.9805C49.3398 37.5078 48.9232 37.9277 48.4609 38.2402C47.9987 38.5592 47.5495 38.7188 47.1133 38.7188C46.6836 38.7188 46.3255 38.6569 46.0391 38.5332C45.7591 38.416 45.541 38.2565 45.3848 38.0547C45.0853 37.6445 44.9355 37.1986 44.9355 36.7168C44.9355 36.2415 45.0951 35.8249 45.4141 35.4668C45.7396 35.1087 46.14 34.8743 46.6152 34.7637Z" fill="#47BEC6"/>
</svg>
